<?xml version="1.0" standalone="no"?>
<!DOCTYPE svg PUBLIC "-//W3C//DTD SVG 20010904//EN"
 "http://www.w3.org/TR/2001/REC-SVG-20010904/DTD/svg10.dtd">
<svg version="1.0" xmlns="http://www.w3.org/2000/svg"
 width="1042.000000pt" height="1042.000000pt" viewBox="0 0 1042.000000 1042.000000"
 preserveAspectRatio="xMidYMid meet">
<metadata>
Created by potrace 1.16, written by Peter Selinger 2001-2019
</metadata>
<g transform="translate(0.000000,1042.000000) scale(0.100000,-0.100000)"
fill="#000000" stroke="none">
<path d="M3105 7125 c-412 -65 -929 -318 -1195 -584 -160 -160 -209 -248 -210
-374 0 -134 74 -228 263 -333 383 -213 570 -352 655 -487 51 -82 66 -128 66
-212 1 -93 -34 -167 -120 -251 -128 -127 -275 -171 -539 -161 -235 9 -416 53
-602 148 -53 27 -98 49 -100 49 -1 0 -3 -6 -3 -14 0 -20 163 -101 282 -140
160 -52 277 -70 473 -70 178 -1 266 11 405 56 183 58 299 165 316 291 16 117
-43 234 -196 387 -114 114 -217 190 -424 316 -74 45 -161 102 -194 128 -249
191 -245 393 13 651 258 259 604 454 970 546 110 27 149 33 250 33 137 1 194
-17 234 -73 24 -33 41 -40 41 -17 0 25 -48 73 -94 96 -56 26 -178 33 -291 15z"/>
<path d="M3775 6709 c-48 -42 -138 -180 -208 -316 -90 -177 -157 -400 -157
-527 0 -54 0 -55 -77 -136 -107 -114 -222 -189 -343 -224 -61 -17 -144 -24
-175 -13 -28 10 -55 58 -55 99 0 41 25 128 50 179 24 45 14 61 -36 57 -38 -3
-39 -4 -61 -66 -51 -143 -36 -234 46 -280 128 -72 406 29 586 215 l63 64 20
-68 c30 -98 107 -164 189 -163 76 1 202 68 315 168 50 43 74 59 79 50 3 -7 9
-46 13 -86 6 -74 27 -132 47 -132 19 0 63 55 114 144 28 47 102 173 166 279
105 173 137 241 89 191 -26 -28 -192 -298 -262 -427 -33 -62 -68 -123 -76
-137 l-16 -25 -7 27 c-4 15 -7 127 -8 249 0 124 -4 226 -9 231 -5 5 -20 8 -33
6 -24 -3 -24 -4 -24 -136 l0 -134 -55 -49 c-179 -161 -297 -214 -372 -165 -14
9 -38 39 -53 67 -22 42 -29 68 -33 138 -4 83 -3 88 22 119 98 115 236 351 307
525 51 123 72 241 53 291 -10 27 -60 19 -99 -15z m75 -60 c0 -74 -25 -152 -97
-294 -91 -183 -246 -430 -251 -402 -13 68 102 446 176 577 51 90 143 197 161
186 6 -4 11 -34 11 -67z"/>
<path d="M4523 5941 c-70 -51 -114 -128 -115 -201 0 -88 58 -158 161 -195 57
-20 186 -19 265 1 109 28 261 106 383 197 l51 38 63 -33 c59 -31 69 -33 166
-33 82 0 102 -3 98 -13 -46 -121 -64 -317 -32 -365 43 -66 121 -77 224 -32
l58 26 -66 -68 c-36 -37 -82 -89 -103 -114 -46 -58 -136 -208 -136 -226 0 -26
20 -12 46 35 178 308 430 508 741 588 134 34 293 36 372 5 157 -63 231 -146
231 -258 -1 -219 -364 -575 -931 -916 -79 -47 -255 -138 -301 -156 l-26 -10
40 102 c64 166 145 353 216 497 68 138 221 427 260 490 12 19 22 40 22 46 0
24 -76 43 -115 28 -18 -7 -172 -310 -266 -521 -77 -174 -199 -484 -235 -597
-29 -89 -29 -89 -90 -127 -100 -63 -111 -122 -32 -173 23 -15 25 -21 17 -49
-23 -81 -61 -283 -79 -423 -25 -193 -25 -194 0 -194 11 0 20 2 20 5 0 47 128
596 142 611 3 2 17 0 32 -6 51 -19 335 -71 466 -85 30 -3 93 -10 140 -15 83
-9 139 -13 310 -25 47 -3 110 -8 140 -10 93 -7 260 -8 267 -1 12 12 -3 14
-127 20 -136 7 -254 14 -340 21 -30 2 -89 7 -130 10 -99 8 -319 33 -400 46
-119 18 -322 63 -341 75 -7 4 16 85 52 184 18 50 24 57 67 74 87 34 491 244
621 322 72 43 179 114 238 158 131 97 305 268 361 354 82 127 105 260 62 359
-106 247 -566 286 -939 82 l-76 -42 78 79 c127 130 243 303 215 320 -6 4 -13
3 -15 -2 -2 -6 -31 -53 -64 -105 -159 -245 -464 -470 -548 -402 -42 34 -38
106 18 311 15 54 18 79 10 99 -9 25 -11 25 -77 19 -46 -4 -85 -2 -125 9 -56
14 -157 60 -157 71 0 2 10 18 21 34 20 27 21 31 6 53 -19 30 -75 57 -117 57
-85 0 -96 -58 -24 -131 l46 -47 -104 -69 c-175 -117 -298 -166 -418 -167 -81
0 -122 15 -173 63 -54 49 -53 56 4 119 54 59 99 140 99 179 0 57 -65 69 -127
24z m95 -19 c5 -33 -32 -106 -78 -156 -24 -25 -46 -46 -51 -46 -18 0 -8 82 16
129 25 51 80 104 99 98 6 -2 12 -13 14 -25z"/>
<path d="M8213 4522 c-16 -10 -45 -94 -72 -212 -25 -107 -34 -123 -105 -199
-125 -132 -322 -231 -460 -231 -56 0 -91 29 -101 83 -8 40 14 135 45 200 19
39 19 43 3 54 -31 24 -51 14 -130 -64 -136 -135 -352 -240 -434 -211 -46 16
-62 65 -50 152 5 35 4 59 -3 66 -24 24 -54 7 -138 -79 -111 -113 -194 -156
-217 -113 -21 40 36 139 129 226 91 84 160 105 263 82 24 -5 37 -5 37 2 0 21
-76 37 -175 37 -92 0 -104 -2 -154 -30 -91 -51 -150 -140 -159 -240 -4 -55 -2
-64 21 -90 48 -56 133 -31 243 72 l52 48 4 -52 c7 -77 59 -123 139 -123 94 0
265 73 386 164 l72 54 -7 -31 c-14 -63 -7 -132 17 -166 36 -50 75 -65 166 -65
144 2 313 84 459 223 38 36 67 62 64 56 -3 -5 -9 -54 -13 -107 -6 -80 -5 -98
6 -98 8 1 42 59 77 130 101 206 211 360 258 360 24 0 34 -45 36 -173 3 -115 5
-126 30 -164 77 -117 277 -116 448 2 85 58 158 127 142 133 -7 2 -27 -8 -45
-22 -141 -115 -198 -147 -294 -167 -49 -10 -73 -10 -113 -1 -113 26 -140 70
-140 231 0 122 -14 175 -49 186 -52 16 -143 -84 -246 -270 -30 -55 -55 -95
-55 -90 0 22 41 156 85 274 25 69 45 128 45 132 0 12 -30 39 -43 39 -7 0 -18
-4 -24 -8z"/>
</g>
</svg>
